<svg width="188" height="383" viewBox="0 0 188 383" fill="none" xmlns="http://www.w3.org/2000/svg">
<path d="M157.86 382.34L28.1502 381.74C24.439 381.726 20.7671 380.981 17.3439 379.547C13.9208 378.114 10.8135 376.02 8.19952 373.385C5.58555 370.751 3.51607 367.628 2.10922 364.193C0.702382 360.759 -0.0142586 357.081 0.000214935 353.37L1.40021 28.1403C1.41462 24.4288 2.16029 20.7564 3.59458 17.3332C5.02886 13.91 7.12365 10.8029 9.75925 8.18959C12.3948 5.57629 15.5196 3.50795 18.9549 2.10279C22.3902 0.697631 26.0687 -0.0168076 29.7802 0.000300124L159.5 0.600299C166.994 0.634701 174.166 3.64375 179.442 8.96576C184.717 14.2878 187.662 21.487 187.63 28.9803L186.25 354.18C186.24 357.895 185.497 361.571 184.063 364.997C182.63 368.424 180.535 371.535 177.898 374.15C175.26 376.766 172.133 378.836 168.695 380.241C165.256 381.647 161.575 382.36 157.86 382.34Z" fill="#263238"/>
<path d="M159.32 11.8503L134.17 11.7403C133.344 11.7507 132.527 11.925 131.768 12.2531C131.009 12.5813 130.323 13.0568 129.749 13.652C129.175 14.2473 128.725 14.9505 128.425 15.721C128.125 16.4914 127.98 17.3137 128 18.1403V22.7003C128.016 23.5207 127.87 24.3361 127.571 25.0999C127.271 25.8637 126.824 26.5609 126.254 27.1516C125.685 27.7424 125.005 28.215 124.252 28.5426C123.5 28.8701 122.691 29.046 121.87 29.0603L72.8704 28.8303C72.05 28.8096 71.2417 28.6273 70.4919 28.2937C69.7421 27.9602 69.0654 27.482 68.5006 26.8866C67.9359 26.2912 67.4941 25.5902 67.2006 24.8238C66.9072 24.0574 66.7677 23.2407 66.7904 22.4203V17.8603C66.8334 16.2043 66.2171 14.5989 65.0771 13.3969C63.937 12.195 62.3664 11.4948 60.7104 11.4503H51.8603L29.8603 11.3403C24.6289 11.3216 19.6029 13.3751 15.8813 17.0518C12.1597 20.7284 10.0453 25.7291 10.0004 30.9603L8.66036 348.38C8.63643 353.627 10.6972 358.669 14.3895 362.397C18.0818 366.125 23.1035 368.234 28.3504 368.26L157.81 368.85C163.057 368.869 168.097 366.803 171.821 363.107C175.545 359.411 177.649 354.387 177.67 349.14L179 31.7303C179.024 26.4851 176.965 21.445 173.275 17.7173C169.585 13.9897 164.566 11.8794 159.32 11.8503Z" fill="#FAFAFA"/>
<path d="M40.3204 62.0403C40.3204 63.2705 39.9556 64.4731 39.2721 65.496C38.5886 66.5188 37.6172 67.3161 36.4807 67.7868C35.3441 68.2576 34.0935 68.3808 32.8869 68.1408C31.6804 67.9008 30.572 67.3084 29.7022 66.4385C28.8323 65.5686 28.2399 64.4603 27.9999 63.2538C27.7599 62.0472 27.8831 60.7966 28.3538 59.66C28.8246 58.5235 29.6219 57.552 30.6447 56.8686C31.6676 56.1851 32.8702 55.8203 34.1004 55.8203C34.9172 55.8203 35.726 55.9812 36.4807 56.2938C37.2353 56.6064 37.921 57.0645 38.4986 57.6421C39.0762 58.2197 39.5343 58.9054 39.8469 59.66C40.1595 60.4147 40.3204 61.2235 40.3204 62.0403Z" fill="#E8505B"/>
<path d="M51.9204 57.3604H156.31C157.843 57.3604 159.313 57.9693 160.397 59.0533C161.481 60.1372 162.09 61.6074 162.09 63.1404V78.9604C162.09 79.7189 161.941 80.47 161.65 81.1707C161.36 81.8714 160.934 82.508 160.397 83.0439C159.86 83.5798 159.223 84.0046 158.522 84.294C157.82 84.5834 157.069 84.7317 156.31 84.7303H62.8204C62.0618 84.7317 61.3105 84.5834 60.6093 84.294C59.908 84.0046 59.2708 83.5798 58.7339 83.0439C58.1971 82.508 57.7712 81.8714 57.4806 81.1707C57.19 80.47 57.0404 79.7189 57.0404 78.9604V61.9604L51.9204 57.3604Z" fill="#E8505B"/>
<path d="M145.35 67.1404C145.35 67.2804 129.35 67.4004 109.56 67.4004C89.7702 67.4004 73.7603 67.2804 73.7603 67.1404C73.7603 67.0004 89.7602 66.8804 109.56 66.8804C129.36 66.8804 145.35 67.0304 145.35 67.1404Z" fill="white"/>
<path d="M145.35 73.6203C145.35 73.7703 129.35 73.8804 109.56 73.8804C89.7702 73.8804 73.7603 73.7703 73.7603 73.6203C73.7603 73.4703 89.7602 73.3604 109.56 73.3604C129.36 73.3604 145.35 73.4803 145.35 73.6203Z" fill="white"/>
<path d="M40.3204 215.14C40.3204 216.37 39.9556 217.573 39.2721 218.596C38.5886 219.619 37.6172 220.416 36.4807 220.887C35.3441 221.358 34.0935 221.481 32.8869 221.241C31.6804 221.001 30.572 220.408 29.7022 219.538C28.8323 218.669 28.2399 217.56 27.9999 216.354C27.7599 215.147 27.8831 213.897 28.3538 212.76C28.8246 211.623 29.6219 210.652 30.6447 209.969C31.6676 209.285 32.8702 208.92 34.1004 208.92C34.9172 208.92 35.726 209.081 36.4807 209.394C37.2353 209.706 37.921 210.165 38.4986 210.742C39.0762 211.32 39.5343 212.005 39.8469 212.76C40.1595 213.515 40.3204 214.323 40.3204 215.14Z" fill="#E8505B"/>
<path d="M51.9204 210.42H156.31C157.843 210.42 159.313 211.029 160.397 212.113C161.481 213.197 162.09 214.667 162.09 216.2V232.01C162.09 233.543 161.481 235.013 160.397 236.097C159.313 237.181 157.843 237.79 156.31 237.79H62.8204C61.2875 237.79 59.8173 237.181 58.7333 236.097C57.6493 235.013 57.0404 233.543 57.0404 232.01V215.01L51.9204 210.42Z" fill="#E8505B"/>
<path d="M145.35 220.24C145.35 220.38 129.35 220.5 109.56 220.5C89.7702 220.5 73.7603 220.38 73.7603 220.24C73.7603 220.1 89.7602 219.98 109.56 219.98C129.36 219.98 145.35 220.14 145.35 220.24Z" fill="white"/>
<path d="M145.35 226.68C145.35 226.83 129.35 226.94 109.56 226.94C89.7702 226.94 73.7603 226.83 73.7603 226.68C73.7603 226.53 89.7602 226.42 109.56 226.42C129.36 226.42 145.35 226.54 145.35 226.68Z" fill="white"/>
<path d="M149.57 115.98C152.944 115.98 155.68 113.245 155.68 109.87C155.68 106.496 152.944 103.76 149.57 103.76C146.195 103.76 143.46 106.496 143.46 109.87C143.46 113.245 146.195 115.98 149.57 115.98Z" fill="#455A64"/>
<path d="M134.82 101.28H37.0501C35.6153 101.28 34.2392 101.85 33.2247 102.865C32.2101 103.879 31.6401 105.255 31.6401 106.69V121.5C31.6401 122.935 32.2101 124.311 33.2247 125.326C34.2392 126.34 35.6153 126.91 37.0501 126.91H124.62C126.055 126.91 127.431 126.34 128.446 125.326C129.46 124.311 130.03 122.935 130.03 121.5V105.59L134.82 101.28Z" fill="#455A64"/>
<path d="M47.3203 110.47C47.3203 110.33 62.3203 110.21 80.8503 110.21C99.3803 110.21 114.37 110.33 114.37 110.47C114.37 110.61 99.3703 110.73 80.8503 110.73C62.3303 110.73 47.3203 110.61 47.3203 110.47Z" fill="white"/>
<path d="M47.3203 116.51C47.3203 116.36 62.3203 116.24 80.8503 116.24C99.3803 116.24 114.37 116.36 114.37 116.51C114.37 116.66 99.3703 116.77 80.8503 116.77C62.3303 116.77 47.3203 116.65 47.3203 116.51Z" fill="white"/>
<path d="M27.8804 152.95C27.8804 154.18 28.2452 155.383 28.9286 156.406C29.6121 157.429 30.5835 158.226 31.7201 158.697C32.8566 159.168 34.1073 159.291 35.3138 159.051C36.5204 158.811 37.6287 158.218 38.4986 157.348C39.3684 156.479 39.9608 155.37 40.2008 154.164C40.4408 152.957 40.3177 151.706 39.8469 150.57C39.3761 149.433 38.5789 148.462 37.556 147.778C36.5331 147.095 35.3306 146.73 34.1004 146.73C33.2836 146.73 32.4747 146.891 31.7201 147.204C30.9654 147.516 30.2797 147.974 29.7021 148.552C29.1246 149.13 28.6664 149.815 28.3538 150.57C28.0412 151.325 27.8804 152.133 27.8804 152.95Z" fill="#263238"/>
<path d="M55.8003 143.94H153.58C155.015 143.94 156.391 144.51 157.406 145.525C158.42 146.539 158.99 147.915 158.99 149.35V164.14C158.99 165.575 158.42 166.951 157.406 167.966C156.391 168.98 155.015 169.55 153.58 169.55H66.0003C64.5672 169.548 63.1937 168.977 62.1813 167.962C61.1689 166.948 60.6003 165.573 60.6003 164.14V148.25L55.8003 143.94Z" fill="#263238"/>
<path d="M143.31 153.14C143.31 153.28 128.31 153.4 109.78 153.4C91.25 153.4 76.25 153.28 76.25 153.14C76.25 153 91.25 152.88 109.78 152.88C128.31 152.88 143.31 152.99 143.31 153.14Z" fill="white"/>
<path d="M143.31 159.14C143.31 159.28 128.31 159.4 109.78 159.4C91.25 159.4 76.25 159.28 76.25 159.14C76.25 159 91.25 158.88 109.78 158.88C128.31 158.88 143.31 159.02 143.31 159.14Z" fill="white"/>
<path d="M151.12 181.71H127.52C125.317 181.71 123.53 183.497 123.53 185.7V194.23C123.53 196.434 125.317 198.22 127.52 198.22H151.12C153.324 198.22 155.11 196.434 155.11 194.23V185.7C155.11 183.497 153.324 181.71 151.12 181.71Z" fill="#263238"/>
<path d="M149.48 189.96C146.401 190.218 143.309 190.305 140.22 190.22C137.128 190.305 134.033 190.218 130.95 189.96C134.033 189.703 137.128 189.616 140.22 189.7C143.309 189.616 146.401 189.703 149.48 189.96Z" fill="white"/>
<path d="M36.0503 291.48H20.5903V306.94H36.0503V291.48Z" fill="#E0E0E0"/>
<path d="M54.44 291.48H38.98V306.94H54.44V291.48Z" fill="#E0E0E0"/>
<path d="M72.8404 291.48H57.3804V306.94H72.8404V291.48Z" fill="#E0E0E0"/>
<path d="M91.23 291.48H75.77V306.94H91.23V291.48Z" fill="#E0E0E0"/>
<path d="M109.62 291.48H94.1602V306.94H109.62V291.48Z" fill="#E0E0E0"/>
<path d="M36.7503 329.63H20.5903V345.79H36.7503V329.63Z" fill="#E0E0E0"/>
<path d="M117.79 329.67H39.8203V345.83H117.79V329.67Z" fill="#E0E0E0"/>
<path d="M165 286.98C165 286.98 165 286.58 165 285.81C165 285.04 165 283.9 165 282.4C165 279.4 165 274.96 164.93 269.18L165.05 269.3L20.6701 269.44L20.9301 269.18V286.98L20.6701 286.73L123.27 286.84L153.87 286.91H162.16H164.32H165C165 286.91 164.77 286.91 164.29 286.91H162.17H153.94L123.4 286.98L20.6101 287.09H20.3501V268.92H20.6201L165 269.07H165.12V269.14C165.12 274.95 165.07 279.4 165.05 282.43C165.05 283.91 165.05 285.04 165.05 285.82C165 286.61 165 286.98 165 286.98Z" fill="#263238"/>
<path d="M154.94 272.35H154.2C153.383 272.35 152.72 273.013 152.72 273.83V278.22C152.72 279.038 153.383 279.7 154.2 279.7H154.94C155.758 279.7 156.42 279.038 156.42 278.22V273.83C156.42 273.013 155.758 272.35 154.94 272.35Z" fill="#E8505B"/>
<path d="M159.05 278.24C158.669 278.362 158.269 278.413 157.87 278.39L158.02 278.26C157.976 279.073 157.717 279.86 157.27 280.54C156.971 280.992 156.561 281.361 156.08 281.61C155.545 281.867 154.952 281.981 154.36 281.94C153.82 281.916 153.293 281.769 152.82 281.509C152.347 281.249 151.939 280.883 151.63 280.44C151.168 279.795 150.861 279.053 150.73 278.27L150.88 278.4C150.421 278.424 149.961 278.37 149.52 278.24C149.964 278.124 150.422 278.074 150.88 278.09H151V278.23C151.211 278.933 151.55 279.591 152 280.17C152.281 280.543 152.642 280.849 153.055 281.067C153.468 281.285 153.924 281.409 154.39 281.43C154.894 281.464 155.398 281.375 155.86 281.17C156.26 280.962 156.603 280.66 156.86 280.29C157.289 279.679 157.573 278.978 157.69 278.24V278.1H157.81C158.228 278.078 158.647 278.125 159.05 278.24Z" fill="#E8505B"/>
<path d="M154.57 281.69C154.71 281.69 154.83 282.2 154.83 282.83C154.83 283.46 154.71 283.96 154.57 283.96C154.43 283.96 154.31 283.46 154.31 282.83C154.31 282.2 154.42 281.69 154.57 281.69Z" fill="#E8505B"/>
<path d="M136.58 329.63H120.42V345.79H136.58V329.63Z" fill="#E0E0E0"/>
<path d="M164.98 329.63H139.64V345.79H164.98V329.63Z" fill="#E8505B"/>
<path d="M128.2 291.48H112.74V306.94H128.2V291.48Z" fill="#E0E0E0"/>
<path d="M146.59 291.48H131.13V306.94H146.59V291.48Z" fill="#E0E0E0"/>
<path d="M164.98 291.48H149.52V306.94H164.98V291.48Z" fill="#E0E0E0"/>
<path d="M36.0503 310.55H20.5903V326.01H36.0503V310.55Z" fill="#E0E0E0"/>
<path d="M54.44 310.55H38.98V326.01H54.44V310.55Z" fill="#E0E0E0"/>
<path d="M72.8404 310.55H57.3804V326.01H72.8404V310.55Z" fill="#E0E0E0"/>
<path d="M91.23 310.55H75.77V326.01H91.23V310.55Z" fill="#E0E0E0"/>
<path d="M109.62 310.55H94.1602V326.01H109.62V310.55Z" fill="#E0E0E0"/>
<path d="M128.2 310.55H112.74V326.01H128.2V310.55Z" fill="#E0E0E0"/>
<path d="M146.59 310.55H131.13V326.01H146.59V310.55Z" fill="#E0E0E0"/>
<path d="M164.98 310.55H149.52V326.01H164.98V310.55Z" fill="#E0E0E0"/>
<path d="M89.8502 255.81C89.8541 256.342 89.6998 256.863 89.4068 257.307C89.1139 257.751 88.6956 258.097 88.205 258.302C87.7145 258.508 87.174 258.562 86.6523 258.46C86.1306 258.357 85.6512 258.101 85.2752 257.725C84.8992 257.349 84.6435 256.87 84.5408 256.348C84.438 255.826 84.4928 255.286 84.6981 254.795C84.9034 254.305 85.25 253.887 85.6938 253.594C86.1376 253.301 86.6584 253.146 87.1902 253.15C87.5395 253.15 87.8854 253.219 88.2081 253.353C88.5308 253.487 88.8241 253.682 89.0711 253.929C89.3181 254.176 89.514 254.47 89.6477 254.792C89.7814 255.115 89.8502 255.461 89.8502 255.81Z" fill="#E8505B"/>
<path d="M98.1202 255.85C98.1222 256.379 97.9671 256.897 97.6744 257.337C97.3818 257.778 96.9649 258.122 96.4766 258.325C95.9883 258.528 95.4507 258.582 94.9318 258.48C94.413 258.377 93.9363 258.122 93.5623 257.748C93.1883 257.374 92.9338 256.898 92.8311 256.379C92.7284 255.86 92.7821 255.322 92.9854 254.834C93.1887 254.346 93.5325 253.929 93.9731 253.636C94.4137 253.344 94.9313 253.188 95.4602 253.19C95.8099 253.189 96.1564 253.257 96.4797 253.39C96.8031 253.523 97.0968 253.719 97.3441 253.966C97.5914 254.214 97.7873 254.508 97.9205 254.831C98.0537 255.154 98.1216 255.501 98.1202 255.85Z" fill="#E8505B"/>
<path d="M106.4 255.89C106.402 256.419 106.247 256.937 105.954 257.377C105.662 257.818 105.245 258.162 104.756 258.365C104.268 258.568 103.73 258.622 103.212 258.519C102.693 258.417 102.216 258.162 101.842 257.788C101.468 257.414 101.214 256.938 101.111 256.419C101.008 255.9 101.062 255.362 101.265 254.874C101.469 254.386 101.812 253.969 102.253 253.676C102.694 253.383 103.211 253.228 103.74 253.23C104.446 253.23 105.122 253.511 105.621 254.009C106.12 254.508 106.4 255.185 106.4 255.89Z" fill="#E8505B"/>
</svg>
